<svg width="228" height="45" viewBox="0 0 228 45" fill="none" xmlns="http://www.w3.org/2000/svg">
<g id="Be Better" clip-path="url(#clip0_1494_2612)">
<path id="Vector" d="M213.764 27.561C213.764 24.1552 214.415 21.3381 215.716 19.1097C217.06 16.8812 218.761 15.2204 220.818 14.1272C222.918 13.034 225.101 12.4874 227.368 12.4874V20.5603C225.437 20.5603 223.61 20.7915 221.889 21.254C220.209 21.7165 218.845 22.4734 217.795 23.5245C216.745 24.5757 216.22 25.9212 216.22 27.561H213.764ZM207.906 44.1482V12.6135H216.22V44.1482H207.906Z" fill="white"/>
<path id="Vector_2" d="M191.675 44.9051C188.568 44.9051 185.818 44.2113 183.424 42.8238C181.031 41.3942 179.141 39.4391 177.756 36.9583C176.412 34.4776 175.74 31.6185 175.74 28.3809C175.74 25.1434 176.433 22.2842 177.819 19.8035C179.246 17.3227 181.178 15.3886 183.613 14.0011C186.091 12.5715 188.925 11.8567 192.116 11.8567C194.888 11.8567 197.428 12.5925 199.737 14.0642C202.089 15.4937 203.957 17.6171 205.343 20.4342C206.771 23.2092 207.484 26.5939 207.484 30.5883H183.613L184.369 29.8315C184.369 31.3872 184.747 32.7537 185.503 33.931C186.301 35.0663 187.308 35.9492 188.526 36.5799C189.786 37.1686 191.129 37.4629 192.557 37.4629C194.279 37.4629 195.685 37.1055 196.777 36.3907C197.869 35.6339 198.709 34.6668 199.296 33.4895L206.729 36.3907C205.847 38.1567 204.692 39.6914 203.264 40.9948C201.879 42.2562 200.22 43.2232 198.289 43.896C196.357 44.5687 194.153 44.9051 191.675 44.9051ZM184.81 25.1644L184.054 24.4075H199.233L198.541 25.1644C198.541 23.6507 198.184 22.4524 197.47 21.5694C196.756 20.6444 195.874 19.9717 194.825 19.5512C193.817 19.1307 192.83 18.9205 191.864 18.9205C190.899 18.9205 189.87 19.1307 188.778 19.5512C187.686 19.9717 186.742 20.6444 185.944 21.5694C185.188 22.4524 184.81 23.6507 184.81 25.1644Z" fill="white"/>
<path id="Vector_3" d="M171.296 44.9055C167.811 44.9055 165.166 44.0435 163.36 42.3196C161.597 40.5957 160.715 38.136 160.715 34.9405V2.77513H169.029V33.1115C169.029 34.457 169.323 35.4871 169.911 36.2019C170.499 36.8746 171.359 37.211 172.493 37.211C172.913 37.211 173.375 37.1269 173.879 36.9587C174.383 36.7485 174.908 36.4542 175.453 36.0758L178.351 42.3196C177.343 43.0765 176.209 43.6861 174.95 44.1486C173.732 44.6532 172.514 44.9055 171.296 44.9055ZM155.613 19.6777V12.614H176.902V19.6777H155.613Z" fill="white"/>
<path id="Vector_4" d="M151.625 44.9055C148.139 44.9055 145.494 44.0435 143.688 42.3196C141.925 40.5957 141.043 38.136 141.043 34.9405V2.77513H149.357V33.1115C149.357 34.457 149.651 35.4871 150.239 36.2019C150.827 36.8746 151.688 37.211 152.821 37.211C153.241 37.211 153.703 37.1269 154.207 36.9587C154.711 36.7485 155.236 36.4542 155.782 36.0758L158.679 42.3196C157.671 43.0765 156.537 43.6861 155.278 44.1486C154.06 44.6532 152.842 44.9055 151.625 44.9055ZM135.941 19.6777V12.614H157.23V19.6777H135.941Z" fill="white"/>
<path id="Vector_5" d="M122.418 44.9051C119.31 44.9051 116.56 44.2113 114.167 42.8238C111.773 41.3942 109.884 39.4391 108.498 36.9583C107.154 34.4776 106.482 31.6185 106.482 28.3809C106.482 25.1434 107.175 22.2842 108.561 19.8035C109.989 17.3227 111.92 15.3886 114.355 14.0011C116.833 12.5715 119.667 11.8567 122.858 11.8567C125.63 11.8567 128.17 12.5925 130.48 14.0642C132.831 15.4937 134.7 17.6171 136.085 20.4342C137.513 23.2092 138.227 26.5939 138.227 30.5883H114.355L115.111 29.8315C115.111 31.3872 115.489 32.7537 116.245 33.931C117.043 35.0663 118.051 35.9492 119.268 36.5799C120.528 37.1686 121.872 37.4629 123.299 37.4629C125.021 37.4629 126.428 37.1055 127.519 36.3907C128.611 35.6339 129.451 34.6668 130.039 33.4895L137.471 36.3907C136.589 38.1567 135.434 39.6914 134.007 40.9948C132.621 42.2562 130.962 43.2232 129.031 43.896C127.099 44.5687 124.895 44.9051 122.418 44.9051ZM115.552 25.1644L114.796 24.4075H129.976L129.283 25.1644C129.283 23.6507 128.926 22.4524 128.212 21.5694C127.498 20.6444 126.616 19.9717 125.567 19.5512C124.559 19.1307 123.572 18.9205 122.606 18.9205C121.641 18.9205 120.612 19.1307 119.52 19.5512C118.428 19.9717 117.484 20.6444 116.686 21.5694C115.93 22.4524 115.552 23.6507 115.552 25.1644Z" fill="white"/>
<path id="Vector_6" d="M75.2227 44.1486V0H90.15C93.1732 0 95.8186 0.462509 98.086 1.38753C100.353 2.31254 102.117 3.72109 103.377 5.61318C104.636 7.46321 105.266 9.77575 105.266 12.5508C105.266 14.2747 104.825 15.8725 103.944 17.3441C103.104 18.7737 101.907 20.014 100.353 21.0652C102.411 22.1163 103.986 23.5249 105.077 25.2908C106.211 27.0147 106.778 29.096 106.778 31.5347C106.778 34.2256 106.169 36.5172 104.951 38.4093C103.734 40.3013 102.033 41.7309 99.8496 42.698C97.6661 43.665 95.1048 44.1486 92.1655 44.1486H75.2227ZM83.6626 36.5172H91.3467C93.4042 36.5172 95.0208 36.0126 96.1965 35.0035C97.3722 33.9524 97.9601 32.5648 97.9601 30.8409C97.9601 29.0329 97.3092 27.6244 96.0076 26.6153C94.7059 25.5641 92.9213 25.0385 90.6539 25.0385H83.6626V36.5172ZM83.6626 17.9748H90.3389C92.2285 17.9748 93.7191 17.4912 94.8108 16.5242C95.9026 15.5571 96.4484 14.1906 96.4484 12.4247C96.4484 10.6587 95.8396 9.29222 94.6219 8.32516C93.4042 7.3581 91.7456 6.87456 89.6461 6.87456H83.6626V17.9748Z" fill="white"/>
<path id="Vector_7" d="M47.1949 44.9051C44.0876 44.9051 41.3373 44.2113 38.9439 42.8238C36.5505 41.3942 34.6609 39.4391 33.2753 36.9583C31.9316 34.4776 31.2598 31.6185 31.2598 28.3809C31.2598 25.1434 31.9526 22.2842 33.3383 19.8035C34.7659 17.3227 36.6974 15.3886 39.1328 14.0011C41.6102 12.5715 44.4445 11.8567 47.6357 11.8567C50.4071 11.8567 52.9474 12.5925 55.2569 14.0642C57.6083 15.4937 59.4768 17.6171 60.8625 20.4342C62.2901 23.2092 63.004 26.5939 63.004 30.5883H39.1328L39.8886 29.8315C39.8886 31.3872 40.2666 32.7537 41.0224 33.931C41.8202 35.0663 42.8279 35.9492 44.0456 36.5799C45.3053 37.1686 46.649 37.4629 48.0766 37.4629C49.7982 37.4629 51.2049 37.1055 52.2966 36.3907C53.3883 35.6339 54.2281 34.6668 54.816 33.4895L62.2482 36.3907C61.3664 38.1567 60.2117 39.6914 58.784 40.9948C57.3983 42.2562 55.7398 43.2232 53.8082 43.896C51.8767 44.5687 49.6722 44.9051 47.1949 44.9051ZM40.3295 25.1644L39.5737 24.4075H54.753L54.0602 25.1644C54.0602 23.6507 53.7033 22.4524 52.9894 21.5694C52.2756 20.6444 51.3938 19.9717 50.3441 19.5512C49.3363 19.1307 48.3496 18.9205 47.3838 18.9205C46.418 18.9205 45.3893 19.1307 44.2976 19.5512C43.2058 19.9717 42.2611 20.6444 41.4633 21.5694C40.7074 22.4524 40.3295 23.6507 40.3295 25.1644Z" fill="white"/>
<path id="Vector_8" d="M0 44.1486V0H14.9273C17.9506 0 20.5959 0.462509 22.8634 1.38753C25.1308 2.31254 26.8944 3.72109 28.1541 5.61318C29.4138 7.46321 30.0436 9.77575 30.0436 12.5508C30.0436 14.2747 29.6027 15.8725 28.721 17.3441C27.8812 18.7737 26.6845 20.014 25.1308 21.0652C27.1883 22.1163 28.7629 23.5249 29.8547 25.2908C30.9884 27.0147 31.5553 29.096 31.5553 31.5347C31.5553 34.2256 30.9464 36.5172 29.7287 38.4093C28.511 40.3013 26.8104 41.7309 24.627 42.698C22.4435 43.665 19.8821 44.1486 16.9428 44.1486H0ZM8.43993 36.5172H16.124C18.1815 36.5172 19.7981 36.0126 20.9739 35.0035C22.1496 33.9524 22.7374 32.5648 22.7374 30.8409C22.7374 29.0329 22.0866 27.6244 20.7849 26.6153C19.4832 25.5641 17.6987 25.0385 15.4312 25.0385H8.43993V36.5172ZM8.43993 17.9748H15.1163C17.0058 17.9748 18.4965 17.4912 19.5882 16.5242C20.6799 15.5571 21.2258 14.1906 21.2258 12.4247C21.2258 10.6587 20.6169 9.29222 19.3992 8.32516C18.1815 7.3581 16.5229 6.87456 14.4235 6.87456H8.43993V17.9748Z" fill="white"/>
</g>
<defs>
<clipPath id="clip0_1494_2612">
<rect width="227.369" height="44.973" fill="white"/>
</clipPath>
</defs>
</svg>
