<svg width="110" height="25" viewBox="0 0 110 25" fill="none" xmlns="http://www.w3.org/2000/svg">
<g id="Layer_1" clip-path="url(#clip0_1494_2702)">
<path id="Vector" d="M14.5929 0.78894H19.0148L11.5797 20.591H7.43357L0 0.78894H4.53186L9.53377 15.1798H9.58952L14.5929 0.78894Z" fill="#E4E4E4"/>
<path id="Vector_2" d="M30.1236 14.4272H19.6211C19.7492 15.4307 20.1183 16.1985 20.727 16.7276C21.3356 17.2582 22.1372 17.5228 23.1315 17.5228C23.7583 17.5228 24.3247 17.3875 24.831 17.1184C25.3372 16.8492 25.7018 16.4539 25.9232 15.9324H29.8751C29.4517 17.4209 28.617 18.6236 27.3741 19.545C26.1312 20.4648 24.6788 20.9255 23.0215 20.9255C20.8837 20.9255 19.1345 20.2094 17.771 18.7771C16.4075 17.3449 15.7266 15.5052 15.7266 13.2549C15.7266 11.0047 16.4075 9.26685 17.771 7.81636C19.1345 6.36587 20.8761 5.64062 22.9944 5.64062C25.1127 5.64062 26.8408 6.36131 28.1756 7.80268C29.512 9.24405 30.1794 11.061 30.1794 13.2549L30.1236 14.4257V14.4272ZM22.9658 8.82137C22.0814 8.82137 21.3537 9.06768 20.7827 9.5603C20.2117 10.0529 19.8426 10.728 19.6769 11.5825H26.2547C26.107 10.7462 25.747 10.0757 25.1775 9.57398C24.6065 9.07224 23.8697 8.82137 22.9658 8.82137Z" fill="#E4E4E4"/>
<path id="Vector_3" d="M79.5434 17.0773V20.5074C79.102 20.6184 78.4843 20.6746 77.6918 20.6746C74.7253 20.6746 73.2428 19.1877 73.2428 16.2122V9.0996H71.2812V5.97511H73.2428V2.35193H77.1675V5.97816H79.5721V9.10264H77.1675V15.7971C77.1675 16.7458 77.6557 17.2202 78.632 17.2202L79.5434 17.0803V17.0773Z" fill="#E4E4E4"/>
<path id="Vector_4" d="M86.811 17.0773V20.5074C86.3696 20.6184 85.7519 20.6746 84.9594 20.6746C81.9929 20.6746 80.5104 19.1877 80.5104 16.2122V9.0996H78.5488V5.97511H80.5104V2.35193H84.4351V5.97816H86.8397V9.10264H84.4351V15.7971C84.4351 16.7458 84.9233 17.2202 85.8995 17.2202L86.811 17.0803V17.0773Z" fill="#E4E4E4"/>
<path id="Vector_5" d="M100.768 14.4272H90.2657C90.3937 15.4307 90.7628 16.1985 91.3715 16.7276C91.9802 17.2582 92.7817 17.5228 93.776 17.5228C94.4028 17.5228 94.9693 17.3875 95.4755 17.1184C95.9817 16.8492 96.3463 16.4539 96.5678 15.9324H100.52C100.096 17.4209 99.2616 18.6236 98.0186 19.545C96.7757 20.4648 95.3233 20.9255 93.6661 20.9255C91.5282 20.9255 89.779 20.2094 88.4156 18.7771C87.0521 17.3449 86.3711 15.5052 86.3711 13.2549C86.3711 11.0047 87.0521 9.26685 88.4156 7.81636C89.779 6.36587 91.5207 5.64062 93.6389 5.64062C95.7572 5.64062 97.4853 6.36131 98.8201 7.80268C100.156 9.24405 100.824 11.061 100.824 13.2549L100.768 14.4257V14.4272ZM93.6103 8.82137C92.7259 8.82137 91.9983 9.06768 91.4272 9.5603C90.8562 10.0529 90.4871 10.728 90.3214 11.5825H96.8992C96.7516 10.7462 96.3915 10.0757 95.822 9.57398C95.251 9.07224 94.5143 8.82137 93.6103 8.82137Z" fill="#E4E4E4"/>
<path id="Vector_6" d="M110.001 5.86556V9.57541C109.725 9.51915 109.466 9.49179 109.226 9.49179C108.066 9.49179 107.195 9.79891 106.614 10.4116C106.032 11.0244 105.743 11.9929 105.743 13.3126V20.5924H101.818V5.97655H105.439V7.87253C106.267 6.51478 107.631 5.83667 109.529 5.83667L109.999 5.86404L110.001 5.86556Z" fill="#E4E4E4"/>
<path id="Vector_7" d="M39.6099 20.6853H30.959V0.883179H39.2498C41.4058 0.883179 43.0314 1.38948 44.1282 2.40361C45.2235 3.41774 45.7734 4.72379 45.7734 6.32176C45.7734 7.34501 45.5293 8.23294 45.0412 8.98555C44.553 9.73817 43.8841 10.3098 43.0374 10.7006C43.9579 11.0533 44.6901 11.6113 45.234 12.3746C45.7779 13.1379 46.0491 14.0395 46.0491 15.0794C46.0491 16.8279 45.4962 18.1994 44.3903 19.1937C43.2845 20.1881 41.6905 20.6853 39.6099 20.6853ZM39.2227 4.53677H34.8837V8.83199H39.2227C40.0152 8.83199 40.6268 8.65106 41.0607 8.28768C41.4931 7.92581 41.7101 7.39062 41.7101 6.68362C41.7101 6.05112 41.5022 5.5357 41.0879 5.13582C40.6736 4.73595 40.0513 4.53677 39.2227 4.53677ZM39.4999 12.513H34.8852V17.0317H39.4999C41.1587 17.0317 41.9873 16.2791 41.9873 14.7723C41.9873 14.0851 41.7794 13.5362 41.3651 13.1272C40.9508 12.7182 40.3285 12.513 39.4999 12.513Z" fill="#E4E4E4"/>
<path id="Vector_8" d="M70.8842 9.85214C70.3252 8.1082 68.8804 6.87666 67.1493 6.39924C66.3433 6.17726 65.5252 6.1286 64.7116 6.19246C64.8201 5.85645 64.8879 5.50675 64.903 5.14488C64.9587 3.85708 64.3425 2.62097 63.3647 1.81362C61.2043 0.0301563 58.0826 0.434591 55.5229 0.883118C52.6694 1.38182 49.9063 2.48261 47.4505 4.02585C45.6155 5.17985 47.3029 8.12037 49.1499 6.96028C51.4204 5.53259 53.9033 4.58385 56.5428 4.13836C57.6502 3.95135 58.8886 3.80234 60.0095 3.94679C60.4841 4.0076 60.9843 4.17181 61.2947 4.49262C61.5176 4.7222 61.5734 4.95483 61.5282 5.09471C61.26 5.91574 60.2807 6.56497 59.5093 7.08039C58.8058 7.55021 58.0811 7.98809 57.3413 8.39861C54.4562 9.43858 51.5816 10.509 48.698 11.5505C46.6595 12.2863 47.4565 15.2603 49.5929 14.827C52.1104 14.3176 54.5376 13.4997 56.8758 12.4308C57.4935 12.148 58.1248 11.8454 58.7515 11.5201C59.089 11.3984 59.4265 11.2768 59.764 11.1536C61.3399 10.585 62.9821 9.81109 64.6529 9.59214C65.6533 9.46139 66.8375 9.61799 67.4205 10.3645C68.0789 11.2068 67.6947 12.4992 67.1162 13.3066C66.3463 14.3815 65.1395 15.0718 64.0096 15.6952C61.251 17.2171 58.3372 18.4198 55.321 19.3123C51.8362 20.3431 48.258 20.9437 44.6301 21.0988C43.7217 21.1383 42.9473 21.8514 42.9473 22.7971C42.9473 23.6865 43.7186 24.5349 44.6301 24.4954C52.0818 24.1746 59.5033 22.1509 66.0179 18.4563C68.9919 16.7686 72.1015 13.6456 70.8827 9.8491L70.8842 9.85214Z" fill="#A6D96E"/>
</g>
<defs>
<clipPath id="clip0_1494_2702">
<rect width="110" height="24" fill="white" transform="translate(0 0.5)"/>
</clipPath>
</defs>
</svg>
