<svg width="150" height="33" viewBox="0 0 150 33" fill="none" xmlns="http://www.w3.org/2000/svg">
    <path
        d="M17.9795 32.1578C17.0936 32.1578 16.2562 31.6274 15.9044 30.7564C15.4447 29.6119 15.9993 28.3091 17.1439 27.8494C20.6594 26.4351 23.5459 24.5554 25.4925 22.4115C27.0204 20.7291 27.9174 18.9481 28.0198 17.3978C28.07 16.6348 27.9435 15.6224 27.0521 15.1181C25.7959 14.409 23.0248 14.6454 19.0198 17.4388C18.0595 18.1088 16.7475 17.9227 16.0086 17.0163C15.2698 16.1081 15.3573 14.7849 16.2059 13.981C18.1823 12.1125 19.6228 10.3892 20.4863 8.85752C21.0856 7.79486 21.3963 6.83642 21.3815 6.08642C21.3703 5.54672 21.1935 5.12426 20.8548 4.82836C20.2146 4.27005 18.8374 4.37613 17.9069 5.05541C16.8982 5.79052 16.1222 7.08394 15.5359 9.0064C14.3635 12.8439 11.3504 22.7074 11.3504 22.7074C11.0508 23.6844 10.1389 24.3842 9.11719 24.3339C8.10292 24.2856 7.26173 23.6081 7.04957 22.6181C6.94722 22.2961 5.95156 19.4357 0.524761 10.7316C-0.128465 9.68382 0.191635 8.30665 1.2394 7.65342C2.28717 7.00019 3.66434 7.32029 4.31756 8.36806C6.29957 11.5486 7.73072 14.007 8.75987 15.8904C9.65317 12.9686 10.6823 9.60007 11.2611 7.70367C12.1414 4.82091 13.4534 2.77563 15.2717 1.44685C16.4609 0.581461 17.9292 0.0696744 19.4069 0.00639897C21.08 -0.0643206 22.6377 0.453049 23.7952 1.4636C25.0849 2.58953 25.8163 4.20119 25.8517 6.00082C25.8796 7.3631 25.5111 8.82215 24.7574 10.3482C26.4472 10.2124 27.9807 10.5101 29.2518 11.2266C31.459 12.4717 32.6668 14.8892 32.4826 17.6919C32.3151 20.2452 31.0086 22.9884 28.8033 25.4152C26.4063 28.056 22.9522 30.3302 18.8151 31.994C18.5415 32.1038 18.2586 32.1559 17.9813 32.1559L17.9795 32.1578Z"
        fill="#004CFC" />
    <g clip-path="url(#clip0_1768_6915)">
        <path
            d="M58.4492 11.2041C56.3719 11.2041 54.664 11.9082 53.3267 13.3185C51.9894 14.7277 51.3213 16.489 51.3213 18.6034C51.3213 20.7178 51.9894 22.5782 53.3267 23.9689C54.664 25.3607 56.3795 26.0561 58.4753 26.0561C60.1015 26.0561 61.5238 25.6092 62.7434 24.7144C63.9629 23.8196 64.7804 22.6501 65.1956 21.205H61.32C61.1031 21.7107 60.7467 22.0954 60.2497 22.357C59.7527 22.6196 59.1968 22.7504 58.5832 22.7504C57.6078 22.7504 56.822 22.4932 56.2258 21.9777C55.6296 21.4633 55.2678 20.7178 55.1414 19.7423H65.4398L65.4942 18.6045C65.4942 16.4726 64.8392 14.707 63.5292 13.3065C62.2191 11.9071 60.5254 11.2063 58.4481 11.2063L58.4492 11.2041ZM55.1969 16.9762C55.3593 16.1457 55.7212 15.4906 56.2814 15.0111C56.8416 14.5326 57.5555 14.2929 58.4219 14.2929C59.2884 14.2929 60.0295 14.537 60.5897 15.0242C61.1499 15.5124 61.502 16.162 61.6469 16.9751H55.1969V16.9762Z"
            fill="black" />
        <path
            d="M89.5351 11.2041C87.4578 11.2041 85.7499 11.9082 84.4126 13.3185C83.0753 14.7277 82.4072 16.489 82.4072 18.6034C82.4072 20.7178 83.0753 22.5782 84.4126 23.9689C85.7499 25.3607 87.4654 26.0561 89.5613 26.0561C91.1874 26.0561 92.6097 25.6092 93.8293 24.7144C95.0489 23.8196 95.8663 22.6501 96.2815 21.205H92.4059C92.189 21.7107 91.8326 22.0954 91.3356 22.357C90.8386 22.6196 90.2828 22.7504 89.6692 22.7504C88.6937 22.7504 87.9079 22.4932 87.3117 21.9777C86.7156 21.4633 86.3537 20.7178 86.2273 19.7423H96.5257L96.5802 18.6045C96.5802 16.4726 95.9252 14.707 94.6151 13.3065C93.3051 11.9071 91.6114 11.2063 89.534 11.2063L89.5351 11.2041ZM86.2829 16.9762C86.4453 16.1457 86.8071 15.4906 87.3673 15.0111C87.9275 14.5326 88.6414 14.2929 89.5079 14.2929C90.3743 14.2929 91.1155 14.537 91.6757 15.0242C92.2359 15.5124 92.5879 16.162 92.7329 16.9751H86.2829V16.9762Z"
            fill="black" />
        <path
            d="M120.007 11.2041C117.93 11.2041 116.222 11.9082 114.885 13.3185C113.547 14.7277 112.879 16.489 112.879 18.6034C112.879 20.7178 113.547 22.5782 114.885 23.9689C116.222 25.3607 117.938 26.0561 120.033 26.0561C121.66 26.0561 123.082 25.6092 124.301 24.7144C125.521 23.8196 126.338 22.6501 126.754 21.205H122.878C122.661 21.7107 122.305 22.0954 121.808 22.357C121.311 22.6196 120.755 22.7504 120.141 22.7504C119.166 22.7504 118.38 22.4932 117.784 21.9777C117.188 21.4633 116.826 20.7178 116.699 19.7423H126.998L127.052 18.6045C127.052 16.4726 126.397 14.707 125.087 13.3065C123.777 11.9071 122.084 11.2063 120.006 11.2063L120.007 11.2041ZM116.755 16.9762C116.917 16.1457 117.279 15.4906 117.839 15.0111C118.4 14.5326 119.114 14.2929 119.98 14.2929C120.847 14.2929 121.588 14.537 122.148 15.0242C122.708 15.5124 123.06 16.162 123.205 16.9751H116.755V16.9762Z"
            fill="black" />
        <path
            d="M49.8859 6.32715L44.7776 20.9154L39.6955 6.32715H35.3599L42.3515 25.8395H47.013L54.0046 6.32715H49.8859Z"
            fill="black" />
        <path
            d="M79.0742 15.9204C78.7767 15.7634 78.4661 15.6359 78.1446 15.5356C78.3473 15.4681 78.5445 15.3885 78.7353 15.297C79.4938 14.9362 80.0987 14.412 80.551 13.7253C81.0023 13.0387 81.2289 12.2169 81.2289 11.2589C81.2289 9.74178 80.696 8.53963 79.6301 7.65464C78.5642 6.76964 77.1636 6.32715 75.4296 6.32715H66.3508V25.8395H75.7817C76.9914 25.8395 78.0443 25.6226 78.9391 25.1888C79.8339 24.755 80.5292 24.1371 81.0262 23.3327C81.5232 22.5295 81.7717 21.5944 81.7717 20.5274C81.7717 19.4603 81.5276 18.535 81.0404 17.7492C80.5521 16.9634 79.8971 16.3531 79.0753 15.9204H79.0742ZM74.5348 9.308C75.3653 9.308 75.9931 9.51072 76.4182 9.91725C76.8421 10.3238 77.0547 10.9243 77.0547 11.7199C77.0547 12.5156 76.8334 13.1161 76.3909 13.5226C75.9484 13.9291 75.3021 14.1319 74.4531 14.1319H70.524V9.308H74.5348ZM76.8519 22.1131C76.3909 22.6101 75.7086 22.8586 74.8062 22.8586H70.524V17.1138H74.67C75.592 17.1138 76.3005 17.3765 76.7974 17.8996C77.2944 18.4239 77.5429 19.1377 77.5429 20.0402C77.5429 20.9426 77.313 21.6162 76.8519 22.1131Z"
            fill="black" />
        <path
            d="M112.046 22.6613C111.328 22.6613 110.798 22.5054 110.457 22.1926C110.116 21.8798 109.946 21.4112 109.946 20.7856V14.716H112.569V11.5705H109.946V7.99023L105.906 8.06435V11.5705H102.906V7.99023L98.8668 8.06435V11.5705H96.541V14.716H98.8668V20.6482C98.8668 22.4324 99.293 23.761 100.146 24.6351C100.999 25.5092 102.305 25.9451 104.065 25.9451C104.586 25.9451 105.056 25.9081 105.478 25.835C105.578 25.8176 105.673 25.798 105.763 25.7773V22.5784C105.763 22.5784 105.762 22.5784 105.76 22.5784C105.527 22.634 105.275 22.6613 105.006 22.6613C104.288 22.6613 103.758 22.5054 103.417 22.1926C103.076 21.8798 102.906 21.4112 102.906 20.7856V14.716H105.906V20.6482C105.906 22.4324 106.333 23.761 107.186 24.6351C108.038 25.5092 109.345 25.9451 111.104 25.9451C111.625 25.9451 112.096 25.9081 112.518 25.835C112.618 25.8176 112.713 25.798 112.802 25.7773V22.5784C112.802 22.5784 112.801 22.5784 112.8 22.5784C112.567 22.634 112.315 22.6613 112.046 22.6613Z"
            fill="black" />
        <path
            d="M136.01 11.4893C134.93 11.4893 133.902 11.7367 133.064 12.456C132.458 12.9759 132.163 13.5633 131.944 14.2249V11.7661H127.985V25.8366H132.024V18.4984C132.024 17.3583 132.33 16.5529 132.94 16.0842C133.55 15.6156 134.502 15.3802 135.794 15.3802C136.028 15.3802 136.225 15.3845 136.387 15.3943C136.549 15.4041 136.674 15.427 136.764 15.463V11.6004C136.603 11.5274 136.351 11.4903 136.01 11.4903V11.4893Z"
            fill="black" />
        <path
            d="M139.97 15.4331H138.568V11.5312H139.97C140.618 11.5312 141.123 11.7111 141.484 12.0697C141.845 12.4293 142.025 12.8991 142.025 13.4822C142.025 14.0652 141.845 14.535 141.484 14.8947C141.123 15.2543 140.618 15.4331 139.97 15.4331ZM140.875 14.3759C141.078 14.1612 141.18 13.8636 141.18 13.4832C141.18 13.1029 141.078 12.8042 140.875 12.5906C140.671 12.3759 140.362 12.2691 139.948 12.2691H139.372V14.6985H139.948C140.362 14.6985 140.671 14.5917 140.875 14.377V14.3759Z"
            fill="black" />
        <path
            d="M142.966 15.4331H142.126L143.593 11.5312H144.44L145.907 15.4331H145.043L144.807 14.7628H143.203L142.966 15.4331ZM144.01 12.5209H143.999L143.461 14.0435H144.549L144.01 12.5209Z"
            fill="black" />
        <path
            d="M149.489 12.0258C149.871 12.4105 150.06 12.8955 150.06 13.4819C150.06 14.0682 149.87 14.5532 149.489 14.938C149.108 15.3227 148.623 15.5145 148.033 15.5145C147.443 15.5145 146.957 15.3216 146.577 14.938C146.195 14.5532 146.006 14.0682 146.006 13.4819C146.006 12.8955 146.197 12.4105 146.577 12.0258C146.958 11.641 147.443 11.4492 148.033 11.4492C148.623 11.4492 149.109 11.6421 149.489 12.0258ZM148.885 14.4028C149.106 14.1707 149.216 13.8633 149.216 13.4819C149.216 13.1004 149.106 12.7941 148.885 12.5609C148.665 12.3288 148.382 12.2121 148.033 12.2121C147.684 12.2121 147.401 12.3288 147.181 12.5609C146.961 12.7941 146.851 13.1004 146.851 13.4819C146.851 13.8633 146.961 14.1696 147.181 14.4028C147.401 14.635 147.684 14.7516 148.033 14.7516C148.382 14.7516 148.665 14.635 148.885 14.4028Z"
            fill="black" />
    </g>
    <defs>
        <clipPath id="clip0_1768_6915">
            <rect width="114.64" height="19.727" fill="white" transform="translate(35.3599 6.32715)" />
        </clipPath>
    </defs>
</svg>
    