<svg width="180" height="180" viewBox="0 0 180 180" fill="none" xmlns="http://www.w3.org/2000/svg">
    <path
        d="M27.2539 151.18C32.4439 139.86 46.3539 133.36 58.3639 136.62C65.5739 138.58 71.6139 143.46 78.5039 146.35C89.8739 151.13 103.064 150.18 114.654 145.93C126.234 141.69 156.474 126.97 151.304 118.78C146.754 111.57 133.954 115.9 121.934 121.15"
        stroke="rgba(0, 76, 252, 1)" stroke-width="4.5" stroke-linecap="round"
        stroke-linejoin="round" />
    <path
        d="M115.644 77.6201C115.644 77.6201 115.644 29.1801 67.0936 29.1801C67.0936 29.1801 53.6636 90.7101 118.774 93.0801C87.5536 88.6501 28.1836 114.98 28.1836 114.98C60.0236 103.12 134.884 99.76 124.564 119.09C120.814 126.1 100.214 119.18 89.9836 126.03"
        stroke="rgba(0, 76, 252, 1)" stroke-width="4.5" stroke-linecap="round"
        stroke-linejoin="round" />
    <path d="M67.0938 29.1801C67.0938 29.1801 85.5938 52.5301 106.394 77.9601"
        stroke="rgba(0, 76, 252, 1)"
        stroke-width="4.5" stroke-linecap="round" stroke-linejoin="round" />
</svg>
    