<svg width="180" height="180" viewBox="0 0 180 180" fill="none" xmlns="http://www.w3.org/2000/svg">
    <path
        d="M140.71 86.89V151.72H39V29H115.02L140.71 59.82H119.81C119.61 59.82 119.4 59.82 119.2 59.81C106.7 59.39 100.14 44.72 107.87 34.89L112.45 29.06"
        stroke="rgba(0, 76, 252, 1)" stroke-width="4.5" stroke-linecap="round"
        stroke-linejoin="round" />
    <path
        d="M56.5391 130.04C61.4191 124.64 66.8391 119.04 71.7091 113.64C72.7891 112.45 73.8991 111.22 75.4191 110.47C76.9291 109.72 78.9591 109.55 80.3491 110.47C81.7191 111.37 82.1091 113.08 81.7391 114.54C81.3691 116 80.3191 117.23 79.4291 118.52C65.8091 138.2 82.0091 129.8 92.6591 119.81C91.7391 121.37 90.8091 122.97 90.5291 124.7C90.2491 126.43 90.7591 128.37 92.2991 129.49C94.4391 131.04 98.3691 130.04 98.9091 127.66"
        stroke="rgba(0, 76, 252, 1)" stroke-width="4.5" stroke-linecap="round"
        stroke-linejoin="round" />
    <path d="M56.5391 86.8899H140.199" stroke="rgba(0, 76, 252, 1)" stroke-width="4.5"
        stroke-linecap="round"
        stroke-linejoin="round" />
    <path d="M56.5391 69.23H101.409" stroke="rgba(0, 76, 252, 1)" stroke-width="4.5"
        stroke-linecap="round"
        stroke-linejoin="round" />
</svg>
    